<svg width="49" height="56" viewBox="0 0 49 56" fill="none" xmlns="http://www.w3.org/2000/svg">
<path d="M32.2452 5.14808L34.6636 0.738109C34.8246 0.448777 34.7686 0.224779 34.4956 0.066113C34.1969 -0.0668862 33.9694 0.000780038 33.8131 0.269112L31.3632 4.71408C29.2061 3.76554 26.8737 3.2814 24.5174 3.29309C22.1094 3.29309 19.8275 3.76442 17.6715 4.70708L15.2216 0.262112C15.063 0.000780064 14.8355 -0.0633862 14.5391 0.069613C14.2661 0.230612 14.209 0.455777 14.3676 0.745109L16.7861 5.15158C14.4091 6.3214 12.3877 8.10484 10.9307 10.3176C9.4976 12.4636 8.73831 14.9889 8.75029 17.5695H40.2494C40.2494 14.9445 39.5226 12.5272 38.069 10.3176C36.6182 8.11129 34.6087 6.32883 32.2452 5.15158V5.14808ZM18.27 11.56C18.148 11.6836 18.0024 11.7813 17.8419 11.8475C17.6814 11.9136 17.5092 11.9468 17.3356 11.945C17.1637 11.949 16.9929 11.9168 16.8343 11.8505C16.6758 11.7842 16.5329 11.6852 16.4151 11.56C16.2947 11.4384 16.1996 11.2941 16.1354 11.1355C16.0711 10.9769 16.0389 10.8072 16.0406 10.636C16.0384 10.4643 16.0704 10.2939 16.1347 10.1347C16.199 9.97545 16.2943 9.8306 16.4151 9.70855C16.5329 9.58339 16.6758 9.48442 16.8343 9.41809C16.9929 9.35176 17.1637 9.31955 17.3356 9.32356C17.6972 9.32356 18.0087 9.45189 18.27 9.70855C18.3956 9.8279 18.4953 9.97186 18.5627 10.1314C18.6301 10.291 18.664 10.4628 18.662 10.636C18.6635 10.8087 18.6294 10.9798 18.562 11.1388C18.4946 11.2977 18.3952 11.4411 18.27 11.56ZM32.6231 11.56C32.5057 11.6848 32.3634 11.7835 32.2055 11.8498C32.0475 11.9161 31.8774 11.9486 31.7062 11.945C31.532 11.9473 31.3591 11.9143 31.1979 11.8482C31.0368 11.782 30.8906 11.684 30.7682 11.56C30.643 11.4411 30.5437 11.2977 30.4762 11.1388C30.4088 10.9798 30.3747 10.8087 30.3762 10.636C30.3762 10.2767 30.5069 9.96755 30.7682 9.70855C30.8906 9.58459 31.0368 9.48659 31.1979 9.42044C31.3591 9.35429 31.532 9.32133 31.7062 9.32356C32.0678 9.32356 32.3735 9.45189 32.6231 9.70855C32.7439 9.8306 32.8393 9.97545 32.9035 10.1347C32.9678 10.2939 32.9998 10.4643 32.9976 10.636C32.9976 10.993 32.8728 11.301 32.6231 11.56ZM8.75029 41.1944C8.75029 42.2234 9.11311 43.0984 9.83876 43.8193C10.5644 44.5333 11.451 44.8915 12.4987 44.8938H15.1516L15.1866 52.5308C15.1866 53.4968 15.5273 54.3169 16.2086 54.9913C16.5273 55.3166 16.9089 55.5737 17.33 55.7469C17.7512 55.9202 18.2032 56.0061 18.6585 55.9993C19.1195 56.0088 19.5775 55.9243 20.0047 55.751C20.4319 55.5777 20.8194 55.3192 21.1435 54.9913C21.4742 54.6738 21.7358 54.2913 21.9117 53.8679C22.0875 53.4444 22.1739 52.9892 22.1654 52.5308V44.8938H26.8658V52.5308C26.8658 53.4968 27.2065 54.3169 27.8878 54.9913C28.2118 55.3192 28.5993 55.5777 29.0265 55.751C29.4537 55.9243 29.9118 56.0088 30.3727 55.9993C30.8336 56.0088 31.2917 55.9243 31.7189 55.751C32.1461 55.5777 32.5336 55.3192 32.8576 54.9913C33.1884 54.6738 33.45 54.2913 33.6258 53.8679C33.8017 53.4444 33.8881 52.9892 33.8796 52.5308V44.8938H36.5395C37.5568 44.8938 38.4307 44.5345 39.161 43.8158C39.8843 43.0995 40.2471 42.2245 40.2494 41.1909V18.777H8.75029V41.1944ZM45.4818 18.14C45.0283 18.1317 44.5776 18.2134 44.1559 18.3804C43.7341 18.5474 43.3497 18.7964 43.0249 19.113C42.6927 19.4162 42.4293 19.7871 42.2524 20.2006C42.0755 20.6142 41.9892 21.0608 41.9994 21.5105V35.7309C41.9994 36.6782 42.3412 37.4832 43.0249 38.1459C43.3468 38.4679 43.7302 38.7218 44.1523 38.8926C44.5744 39.0633 45.0265 39.1474 45.4818 39.1399C46.4618 39.1399 47.2924 38.8085 47.9737 38.1459C48.3046 37.8379 48.5669 37.4637 48.7436 37.0476C48.9203 36.6315 49.0074 36.1829 48.9992 35.7309V21.5105C49.0093 21.0608 48.9231 20.6142 48.7462 20.2006C48.5693 19.7871 48.3059 19.4162 47.9737 19.113C47.3047 18.4715 46.4085 18.1216 45.4818 18.14ZM1.026 19.1305C1.35586 18.8097 1.74575 18.5571 2.17334 18.3871C2.60094 18.2172 3.05785 18.1332 3.51793 18.14C4.47457 18.14 5.29355 18.4702 5.97486 19.1305C6.30481 19.4318 6.56688 19.7998 6.74368 20.2101C6.92049 20.6205 7.00797 21.0637 7.00034 21.5105V35.7309C7.00857 36.1813 6.92323 36.6285 6.74973 37.0441C6.57622 37.4598 6.31833 37.835 5.99236 38.1459C5.66836 38.47 5.28209 38.7252 4.85682 38.896C4.43156 39.0668 3.97611 39.1498 3.51793 39.1399C3.0576 39.1462 2.60055 39.0617 2.17294 38.8911C1.74533 38.7206 1.35558 38.4673 1.026 38.1459C0.695131 37.8379 0.432822 37.4637 0.256141 37.0476C0.0794599 36.6315 -0.00763477 36.1829 0.000524645 35.7309V21.5105C0.000524645 20.5865 0.342349 19.7932 1.026 19.1305Z" fill="white"/>
</svg>
