<svg width="45" height="56" viewBox="0 0 45 56" fill="none" xmlns="http://www.w3.org/2000/svg">
<path d="M33.5148 0.0280244C33.3971 -0.104975 29.1567 0.0805242 25.4666 4.13C21.7766 8.17598 22.3443 12.817 22.4274 12.936C22.5104 13.055 27.689 13.2405 30.9948 8.53298C34.3006 3.8255 33.6325 0.164524 33.5148 0.0280244ZM44.9865 41.0933C44.8204 40.7573 36.9383 36.7743 37.6722 29.1164C38.406 21.4584 43.4703 19.3549 43.55 19.1274C43.6296 18.8999 41.4834 16.3624 39.2091 15.0779C37.539 14.1732 35.6911 13.6544 33.7987 13.559C33.4248 13.5485 32.1267 13.2265 29.4578 13.965C27.6994 14.4515 23.7358 16.0264 22.6454 16.0894C21.5516 16.1524 18.2977 14.2625 14.798 13.762C12.5584 13.3245 10.1837 14.2205 8.48409 14.9099C6.78791 15.5959 3.56172 17.5489 1.30476 22.7394C-0.952193 27.9264 0.228208 36.1443 1.07283 38.6993C1.91746 41.2543 3.23633 45.4333 5.47943 48.4853C7.47331 51.9293 10.118 54.3197 11.2222 55.1317C12.3265 55.9437 15.4419 56.4827 17.6019 55.3662C19.3396 54.2882 22.4758 53.6688 23.7151 53.7142C24.9509 53.7598 27.3878 54.2532 29.8836 55.6007C31.8602 56.2902 33.7294 56.0032 35.6022 55.2332C37.4749 54.4597 40.1853 51.5268 43.3492 45.5803C44.5492 42.8153 45.095 41.3196 44.9865 41.0933Z" fill="white"/>
</svg>
