<svg width="200" height="42" viewBox="0 0 200 42" fill="none" xmlns="http://www.w3.org/2000/svg">
<g clip-path="url(#clip0_41_23)">
<circle cx="17.5" cy="20.5" r="17.5" fill="url(#paint0_linear_41_23)"/>
<path d="M18.0983 23.6401L21.8374 23.6401L21.8374 16.162C21.8374 13.9186 20.7156 12.4229 18.0983 12.4229L11.368 12.4229L11.368 10.1795L7.62891 14.2925L11.368 18.4054L11.368 16.162L18.0983 16.162L18.0983 23.6401Z" fill="white"/>
<path d="M16.6023 17.6575L12.8633 17.6575L12.8633 25.8835C12.8633 28.1269 13.994 28.8438 16.2284 28.8747L23.3327 28.8747L23.3327 31.1182L27.0717 27.0052L23.3327 22.8922L23.3327 25.1357L16.6023 25.1357L16.6023 17.6575Z" fill="white"/>
<path d="M54.3236 32.6914C52.4928 32.6914 50.8767 32.3636 49.4753 31.7079C48.074 31.0521 46.9778 30.1138 46.1867 28.8928C45.3956 27.6718 45 26.202 45 24.4836V23.5339H49.4076V24.4836C49.4076 25.9081 49.8484 26.9821 50.7298 27.7056C51.6114 28.4066 52.8093 28.7571 54.3236 28.7571C55.8606 28.7571 57.0021 28.4519 57.7479 27.8413C58.5164 27.2309 58.9007 26.4508 58.9007 25.5011C58.9007 24.8453 58.7085 24.3139 58.3243 23.9071C57.9627 23.5 57.4202 23.1721 56.6969 22.9234C55.9962 22.6521 55.1373 22.4033 54.1202 22.1772L53.3405 22.0077C51.7131 21.6459 50.3117 21.1937 49.1364 20.651C47.9836 20.0857 47.0908 19.3508 46.458 18.4464C45.8476 17.5419 45.5425 16.3662 45.5425 14.919C45.5425 13.4719 45.8816 12.2396 46.5596 11.2221C47.2603 10.182 48.2322 9.39059 49.4753 8.84793C50.7411 8.28265 52.2216 8 53.9167 8C55.612 8 57.115 8.29395 58.426 8.88184C59.7596 9.44712 60.7992 10.3064 61.5452 11.4596C62.3137 12.5901 62.6978 14.0146 62.6978 15.733V16.7505H58.2904V15.733C58.2904 14.8286 58.1096 14.105 57.7479 13.5624C57.4089 12.9971 56.9117 12.5901 56.2561 12.3413C55.6007 12.07 54.8208 11.9343 53.9167 11.9343C52.5606 11.9343 51.5548 12.1944 50.8994 12.7144C50.2665 13.2119 49.95 13.9016 49.95 14.7834C49.95 15.3713 50.0969 15.8687 50.3908 16.2757C50.7073 16.6827 51.1706 17.0218 51.7808 17.2932C52.3911 17.5645 53.1709 17.802 54.1202 18.0054L54.9 18.1751C56.5952 18.5368 58.0643 19.0003 59.3076 19.5657C60.5732 20.1309 61.5564 20.8771 62.2572 21.8041C62.9578 22.7313 63.3082 23.9183 63.3082 25.3655C63.3082 26.8126 62.9353 28.0901 62.1893 29.198C61.466 30.2833 60.4263 31.1425 59.0701 31.7757C57.7366 32.3862 56.1545 32.6914 54.3236 32.6914ZM65.7644 32.2166V15.3939H69.9685V17.5984H70.5787C70.8499 17.0105 71.3584 16.4566 72.1044 15.9365C72.8502 15.3939 73.9804 15.1226 75.4948 15.1226C76.8058 15.1226 77.9472 15.4278 78.919 16.0383C79.9135 16.6262 80.682 17.4515 81.2245 18.5142C81.767 19.5543 82.0382 20.7753 82.0382 22.1772V32.2166H77.7663V22.5164C77.7663 21.2502 77.4499 20.3005 76.817 19.6674C76.2067 19.0343 75.3252 18.7177 74.1725 18.7177C72.8616 18.7177 71.8444 19.1587 71.1212 20.0405C70.3979 20.8997 70.0362 22.1094 70.0362 23.6695V32.2166H65.7644ZM90.8604 32.6914C89.6624 32.6914 88.5888 32.4879 87.6395 32.0809C86.6903 31.6514 85.933 31.0408 85.3679 30.2495C84.8254 29.4355 84.5542 28.4519 84.5542 27.2986C84.5542 26.1455 84.8254 25.1846 85.3679 24.4158C85.933 23.6243 86.7015 23.0364 87.6734 22.6521C88.6679 22.2451 89.798 22.0415 91.0638 22.0415H95.6747V21.0919C95.6747 20.3005 95.4261 19.6561 94.9289 19.1587C94.4317 18.6386 93.6405 18.3785 92.5556 18.3785C91.4933 18.3785 90.7021 18.6273 90.1823 19.1247C89.6624 19.5995 89.3234 20.2214 89.1652 20.9901L85.2323 19.6674C85.5035 18.8082 85.933 18.0281 86.5207 17.3271C87.1309 16.6035 87.9334 16.0269 88.9279 15.5974C89.9449 15.1451 91.1769 14.919 92.6234 14.919C94.8385 14.919 96.5901 15.473 97.8785 16.581C99.1668 17.6889 99.811 19.2943 99.811 21.3971V27.6718C99.811 28.3501 100.127 28.6893 100.76 28.6893H102.116V32.2166H99.2685C98.4323 32.2166 97.7429 32.0132 97.2005 31.6062C96.658 31.1992 96.3868 30.6565 96.3868 29.9782V29.9442H95.7425C95.6521 30.2155 95.4487 30.5773 95.1323 31.0296C94.8158 31.4591 94.3186 31.8436 93.6405 32.1827C92.9624 32.5219 92.0358 32.6914 90.8604 32.6914ZM91.6063 29.2319C92.8043 29.2319 93.7761 28.9041 94.5221 28.2483C95.2904 27.57 95.6747 26.6769 95.6747 25.5689V25.2298H91.369C90.5778 25.2298 89.9563 25.3993 89.5043 25.7385C89.0522 26.0776 88.8262 26.5525 88.8262 27.163C88.8262 27.7735 89.0635 28.271 89.5381 28.6553C90.0128 29.0398 90.7021 29.2319 91.6063 29.2319ZM104.223 39V15.3939H108.427V17.4288H109.037C109.421 16.7732 110.02 16.1965 110.834 15.6991C111.648 15.1791 112.812 14.919 114.326 14.919C115.682 14.919 116.937 15.2583 118.089 15.9365C119.242 16.5923 120.169 17.5645 120.869 18.8534C121.571 20.1422 121.921 21.7024 121.921 23.5339V24.0765C121.921 25.9081 121.571 27.4682 120.869 28.7571C120.169 30.0459 119.242 31.0295 118.089 31.7079C116.937 32.3636 115.682 32.6914 114.326 32.6914C113.309 32.6914 112.45 32.5671 111.749 32.3183C111.071 32.0922 110.518 31.7983 110.088 31.4366C109.681 31.0521 109.353 30.6678 109.105 30.2833H108.495V39H104.223ZM113.038 28.9606C114.371 28.9606 115.468 28.5423 116.326 27.7056C117.208 26.8464 117.649 25.6028 117.649 23.9748V23.6357C117.649 22.0077 117.208 20.7753 116.326 19.9387C115.445 19.0795 114.349 18.6498 113.038 18.6498C111.727 18.6498 110.631 19.0795 109.749 19.9387C108.868 20.7753 108.427 22.0077 108.427 23.6357V23.9748C108.427 25.6028 108.868 26.8464 109.749 27.7056C110.631 28.5423 111.727 28.9606 113.038 28.9606ZM124.012 23.8731V23.3304C124.012 21.5668 124.363 20.0631 125.064 18.8195C125.764 17.5532 126.691 16.5923 127.843 15.9365C129.019 15.2583 130.296 14.919 131.674 14.919C133.211 14.919 134.376 15.1904 135.167 15.733C135.958 16.2757 136.534 16.8409 136.896 17.4288H137.506V15.3939H141.71V35.2013C141.71 36.3544 141.371 37.2703 140.694 37.9486C140.015 38.6495 139.111 39 137.981 39H126.724V35.2691H136.488C137.121 35.2691 137.438 34.93 137.438 34.2516V29.8763H136.828C136.602 30.2381 136.286 30.6113 135.879 30.9956C135.472 31.3574 134.93 31.6627 134.251 31.9113C133.573 32.1601 132.715 32.2844 131.674 32.2844C130.296 32.2844 129.019 31.9566 127.843 31.3009C126.691 30.6225 125.764 29.6616 125.064 28.4179C124.363 27.1517 124.012 25.6368 124.012 23.8731ZM132.895 28.5536C134.206 28.5536 135.302 28.1353 136.184 27.2986C137.065 26.4621 137.506 25.2863 137.506 23.7714V23.4322C137.506 21.8946 137.065 20.7188 136.184 19.9048C135.325 19.0682 134.229 18.6498 132.895 18.6498C131.584 18.6498 130.488 19.0682 129.607 19.9048C128.726 20.7188 128.284 21.8946 128.284 23.4322V23.7714C128.284 25.2863 128.726 26.4621 129.607 27.2986C130.488 28.1353 131.584 28.5536 132.895 28.5536ZM145.429 32.2166V15.3939H149.634V17.2932H150.243C150.492 16.6148 150.899 16.1174 151.464 15.8008C152.051 15.4844 152.73 15.326 153.499 15.326H155.532V19.1247H153.43C152.346 19.1247 151.453 19.4186 150.753 20.0065C150.051 20.5719 149.701 21.4536 149.701 22.6521V32.2166H145.429ZM162.679 32.6914C161.481 32.6914 160.406 32.4879 159.458 32.0809C158.508 31.6514 157.75 31.0408 157.186 30.2495C156.644 29.4355 156.373 28.4519 156.373 27.2986C156.373 26.1455 156.644 25.1846 157.186 24.4158C157.75 23.6243 158.519 23.0364 159.492 22.6521C160.486 22.2451 161.616 22.0415 162.881 22.0415H167.493V21.0919C167.493 20.3005 167.244 19.6561 166.747 19.1587C166.25 18.6386 165.458 18.3785 164.373 18.3785C163.312 18.3785 162.52 18.6273 162 19.1247C161.481 19.5995 161.141 20.2214 160.983 20.9901L157.05 19.6674C157.321 18.8082 157.75 18.0281 158.339 17.3271C158.95 16.6035 159.752 16.0269 160.746 15.5974C161.763 15.1451 162.995 14.919 164.441 14.919C166.656 14.919 168.408 15.473 169.697 16.581C170.985 17.6889 171.629 19.2943 171.629 21.3971V27.6718C171.629 28.3501 171.945 28.6893 172.578 28.6893H173.934V32.2166H171.087C170.25 32.2166 169.561 32.0132 169.018 31.6062C168.476 31.1992 168.205 30.6565 168.205 29.9782V29.9442H167.56C167.47 30.2155 167.266 30.5773 166.95 31.0296C166.633 31.4591 166.137 31.8436 165.458 32.1827C164.781 32.5219 163.854 32.6914 162.679 32.6914ZM163.425 29.2319C164.622 29.2319 165.594 28.9041 166.339 28.2483C167.108 27.57 167.493 26.6769 167.493 25.5689V25.2298H163.187C162.396 25.2298 161.775 25.3993 161.323 25.7385C160.87 26.0776 160.644 26.5525 160.644 27.163C160.644 27.7735 160.881 28.271 161.356 28.6553C161.831 29.0398 162.52 29.2319 163.425 29.2319ZM176.041 32.2166V15.3939H180.245V17.2254H180.856C181.149 16.66 181.635 16.174 182.312 15.767C182.991 15.3373 183.884 15.1226 184.991 15.1226C186.189 15.1226 187.15 15.36 187.874 15.8348C188.597 16.287 189.151 16.8862 189.535 17.6324H190.145C190.529 16.9088 191.072 16.3097 191.772 15.8348C192.472 15.36 193.467 15.1226 194.755 15.1226C195.795 15.1226 196.734 15.3487 197.57 15.8008C198.428 16.2305 199.107 16.8976 199.604 17.802C200.124 18.6838 200.384 19.8031 200.384 21.1598V32.2166H196.111V21.465C196.111 20.5379 195.874 19.8483 195.4 19.3961C194.926 18.9212 194.259 18.6838 193.399 18.6838C192.428 18.6838 191.67 19.0003 191.128 19.6335C190.608 20.244 190.349 21.1258 190.349 22.279V32.2166H186.076V21.465C186.076 20.5379 185.839 19.8483 185.364 19.3961C184.889 18.9212 184.223 18.6838 183.364 18.6838C182.392 18.6838 181.635 19.0003 181.093 19.6335C180.573 20.244 180.312 21.1258 180.312 22.279V32.2166H176.041Z" fill="white"/>
</g>
<defs>
<linearGradient id="paint0_linear_41_23" x1="17.5" y1="3" x2="17.5" y2="38" gradientUnits="userSpaceOnUse">
<stop stop-color="#7E75FF"/>
<stop offset="1" stop-color="#3828FF"/>
</linearGradient>
<clipPath id="clip0_41_23">
<rect width="200" height="42" fill="white"/>
</clipPath>
</defs>
</svg>
