<svg width="28" height="18" viewBox="0 0 28 18" fill="none" xmlns="http://www.w3.org/2000/svg">
<path fill-rule="evenodd" clip-rule="evenodd" d="M27.1247 8.99996C27.1247 8.75132 27.026 8.51287 26.8501 8.33705C26.6743 8.16124 26.4359 8.06246 26.1872 8.06246H4.07535L9.97597 2.16371C10.0631 2.07655 10.1323 1.97307 10.1795 1.85918C10.2266 1.7453 10.2509 1.62323 10.2509 1.49996C10.2509 1.37669 10.2266 1.25463 10.1795 1.14074C10.1323 1.02686 10.0631 0.923378 9.97597 0.836213C9.88881 0.749048 9.78533 0.679906 9.67144 0.632732C9.55756 0.585559 9.43549 0.561279 9.31222 0.561279C9.18895 0.561279 9.06689 0.585559 8.953 0.632732C8.83912 0.679906 8.73564 0.749048 8.64847 0.836213L1.14847 8.33621C1.06117 8.4233 0.991899 8.52675 0.944637 8.64065C0.897375 8.75455 0.873047 8.87665 0.873047 8.99996C0.873047 9.12328 0.897375 9.24538 0.944637 9.35928C0.991899 9.47317 1.06117 9.57663 1.14847 9.66371L8.64847 17.1637C8.73564 17.2509 8.83912 17.32 8.953 17.3672C9.06689 17.4144 9.18895 17.4386 9.31222 17.4386C9.43549 17.4386 9.55756 17.4144 9.67144 17.3672C9.78533 17.32 9.88881 17.2509 9.97597 17.1637C10.0631 17.0765 10.1323 16.9731 10.1795 16.8592C10.2266 16.7453 10.2509 16.6232 10.2509 16.5C10.2509 16.3767 10.2266 16.2546 10.1795 16.1407C10.1323 16.0269 10.0631 15.9234 9.97597 15.8362L4.07535 9.93746H26.1872C26.4359 9.93746 26.6743 9.83869 26.8501 9.66288C27.026 9.48706 27.1247 9.2486 27.1247 8.99996Z" fill="#877EFF"/>
</svg>
