<svg width="17" height="18" viewBox="0 0 17 18" fill="none" xmlns="http://www.w3.org/2000/svg">
<path fill-rule="evenodd" clip-rule="evenodd" d="M5.52965 1.76051C7.98191 -0.586837 11.947 -0.586837 14.3992 1.76051C16.8669 4.12262 16.8669 7.96414 14.3992 10.3262L7.77586 16.6663C6.03414 18.3335 3.2211 18.3335 1.47938 16.6663C-0.277756 14.9843 -0.277758 12.2455 1.47938 10.5635L8.00746 4.31476C9.03863 3.3277 10.6997 3.3277 11.7308 4.31476C12.7774 5.31658 12.7774 6.95263 11.7308 7.95445L5.1551 14.2488C4.90574 14.4875 4.51011 14.4789 4.27143 14.2295C4.03274 13.9802 4.04139 13.5845 4.29074 13.3459L10.8665 7.05146C11.3989 6.54184 11.3989 5.72737 10.8665 5.21775C10.3187 4.69337 9.41963 4.69337 8.87181 5.21775L2.34373 11.4665C1.10079 12.6563 1.10079 14.5735 2.34373 15.7633C3.60209 16.9678 5.65314 16.9678 6.9115 15.7633L13.5349 9.42326C15.4884 7.55335 15.4884 4.53341 13.5349 2.6635C11.566 0.778833 8.36291 0.778833 6.394 2.6635L1.05718 7.772C0.807826 8.01068 0.412192 8.00204 0.173507 7.75268C-0.0651787 7.50333 -0.0565306 7.1077 0.192823 6.86901L5.52965 1.76051Z" fill="#5C5C7B"/>
</svg>
