<svg width="11" height="11" viewBox="0 0 11 11" fill="none" xmlns="http://www.w3.org/2000/svg">
<path d="M0.259306 0.259367C0.331878 0.186612 0.418089 0.128889 0.513004 0.0895037C0.607918 0.0501187 0.70967 0.0298462 0.812431 0.0298462C0.915193 0.0298462 1.01694 0.0501187 1.11186 0.0895037C1.20677 0.128889 1.29299 0.186612 1.36556 0.259367L5.49993 4.39531L9.63431 0.259367C9.70694 0.18673 9.79318 0.129111 9.88808 0.0897995C9.98299 0.0504884 10.0847 0.0302552 10.1874 0.0302552C10.2902 0.0302552 10.3919 0.0504884 10.4868 0.0897995C10.5817 0.129111 10.6679 0.18673 10.7406 0.259367C10.8132 0.332005 10.8708 0.418238 10.9101 0.513143C10.9494 0.608048 10.9697 0.709768 10.9697 0.812492C10.9697 0.915217 10.9494 1.01694 10.9101 1.11184C10.8708 1.20675 10.8132 1.29298 10.7406 1.36562L6.60462 5.49999L10.7406 9.63437C10.8132 9.707 10.8708 9.79324 10.9101 9.88814C10.9494 9.98305 10.9697 10.0848 10.9697 10.1875C10.9697 10.2902 10.9494 10.3919 10.9101 10.4868C10.8708 10.5817 10.8132 10.668 10.7406 10.7406C10.6679 10.8133 10.5817 10.8709 10.4868 10.9102C10.3919 10.9495 10.2902 10.9697 10.1874 10.9697C10.0847 10.9697 9.98299 10.9495 9.88808 10.9102C9.79318 10.8709 9.70694 10.8133 9.63431 10.7406L5.49993 6.60468L1.36556 10.7406C1.29292 10.8133 1.20669 10.8709 1.11178 10.9102C1.01688 10.9495 0.915156 10.9697 0.812431 10.9697C0.709707 10.9697 0.607987 10.9495 0.513082 10.9102C0.418177 10.8709 0.331944 10.8133 0.259306 10.7406C0.186669 10.668 0.12905 10.5817 0.0897385 10.4868C0.0504274 10.3919 0.0301942 10.2902 0.0301942 10.1875C0.0301942 10.0848 0.0504274 9.98305 0.0897385 9.88814C0.12905 9.79324 0.186669 9.707 0.259306 9.63437L4.39524 5.49999L0.259306 1.36562C0.186551 1.29305 0.128828 1.20683 0.0894427 1.11192C0.0500576 1.01701 0.0297852 0.915254 0.0297852 0.812492C0.0297852 0.709731 0.0500576 0.607979 0.0894427 0.513065C0.128828 0.41815 0.186551 0.331939 0.259306 0.259367Z" fill="white"/>
</svg>
