<svg width="52" height="54" viewBox="0 0 52 54" fill="none" xmlns="http://www.w3.org/2000/svg">
<path d="M20.7993 0.937421C21.1368 1.33816 21.3435 1.828 21.393 2.34401C21.4424 2.86002 21.3322 3.37863 21.0766 3.83321C19.0713 7.41532 18.0246 11.4313 18.033 15.5109C18.033 29.082 29.3963 40.0711 43.4011 40.0711C45.2315 40.0689 47.0029 39.8889 48.7153 39.5311C49.2392 39.422 49.7845 39.4649 50.2836 39.6545C50.7826 39.844 51.2137 40.172 51.5232 40.5976C51.8508 41.0406 52.0179 41.577 51.9985 42.1225C51.979 42.668 51.7741 43.1917 51.4158 43.6116C48.6968 46.863 45.2668 49.4828 41.3759 51.28C37.4851 53.0771 33.2314 54.0064 28.9248 54C12.9441 54 0 41.465 0 26.0208C0 14.3971 7.32828 4.42722 17.7626 0.20166C18.2822 -0.0133304 18.8595 -0.0578179 19.4073 0.0749208C19.9552 0.207659 20.4438 0.51041 20.7993 0.937421ZM16.8405 4.42385C12.8286 6.51946 9.47464 9.63407 7.13509 13.4367C4.79554 17.2394 3.55774 21.5881 3.55321 26.0208C3.55321 39.5885 14.92 50.5777 28.9248 50.5777C32.2784 50.5826 35.5997 49.9402 38.6968 48.6878C41.7938 47.4353 44.6051 45.5976 46.9682 43.2808C45.7988 43.4226 44.6098 43.4934 43.4011 43.4934C27.4204 43.4934 14.4798 30.9585 14.4798 15.5143C14.4798 11.5756 15.3187 7.8259 16.8405 4.42385Z" fill="#877EFF"/>
</svg>
