<svg width="15" height="15" viewBox="0 0 15 15" fill="none" xmlns="http://www.w3.org/2000/svg">
<path d="M2 5.35714C2 5.49922 1.94732 5.63548 1.85355 5.73595C1.75979 5.83642 1.63261 5.89286 1.5 5.89286C1.36739 5.89286 1.24021 5.83642 1.14645 5.73595C1.05268 5.63548 1 5.49922 1 5.35714C1 5.21506 1.05268 5.0788 1.14645 4.97834C1.24021 4.87787 1.36739 4.82143 1.5 4.82143C1.63261 4.82143 1.75979 4.87787 1.85355 4.97834C1.94732 5.0788 2 5.21506 2 5.35714ZM3.75 11.25C3.415 11.25 3.132 11.4921 3.037 11.8195L1.709 12.0568C1.588 12.0782 1.5 12.1907 1.5 12.3214V13.9286C1.5 14.0598 1.588 14.1718 1.709 14.1932L3.037 14.4305C3.132 14.7573 3.415 15 3.75 15H5.75C6.085 15 6.368 14.7579 6.463 14.4305L7.791 14.1932C7.912 14.1718 8 14.0593 8 13.9286V12.3214C8 12.1902 7.912 12.0782 7.791 12.0568L6.463 11.8189C6.368 11.4927 6.085 11.25 5.75 11.25H3.75ZM3.75 11.7857H5.75C5.893 11.7857 6 11.9004 6 12.0536V14.1964C6 14.3496 5.893 14.4643 5.75 14.4643H3.75C3.607 14.4643 3.5 14.3496 3.5 14.1964V12.0536C3.5 11.9004 3.607 11.7857 3.75 11.7857ZM3 12.3707V13.8793L2 13.7014V12.5486L3 12.3707ZM6.5 12.3707L7.5 12.5486V13.7014L6.5 13.8793V12.3707ZM2.75 1.07143C2.612 1.07143 2.5 1.19143 2.5 1.33929V9.375C2.5 9.52286 2.612 9.64286 2.75 9.64286H8.25C8.585 9.64286 8.577 9.10714 8.25 9.10714H3V1.60714H12V4.01786C12 4.37143 12.5 4.37679 12.5 4.01786V1.33929C12.5 1.19143 12.388 1.07143 12.25 1.07143H2.75ZM0.75 0C0.339 0 0 0.363214 0 0.803571V9.91072C0 10.3511 0.339 10.7143 0.75 10.7143H8.25C8.585 10.7143 8.58 10.1786 8.25 10.1786H0.75C0.607 10.1786 0.5 10.0639 0.5 9.91072V0.803571C0.5 0.650357 0.607 0.535714 0.75 0.535714H12.75C12.893 0.535714 13 0.650357 13 0.803571V4.01786C13 4.38054 13.5 4.37143 13.5 4.01786V0.803571C13.5 0.363214 13.161 0 12.75 0H0.75ZM11.25 5.89286H12.75C12.8885 5.89286 13 6.01232 13 6.16071C13 6.30911 12.8885 6.42857 12.75 6.42857H11.25C11.1115 6.42857 11 6.30911 11 6.16071C11 6.01232 11.1115 5.89286 11.25 5.89286ZM9.75 4.82143C9.339 4.82143 9 5.18464 9 5.625V14.1964C9 14.6368 9.339 15 9.75 15H14.25C14.661 15 15 14.6368 15 14.1964V5.625C15 5.18464 14.661 4.82143 14.25 4.82143H9.75ZM9.75 5.35714H14.25C14.393 5.35714 14.5 5.47179 14.5 5.625V14.1964C14.5 14.3496 14.393 14.4643 14.25 14.4643H9.75C9.607 14.4643 9.5 14.3496 9.5 14.1964V5.625C9.5 5.47179 9.607 5.35714 9.75 5.35714ZM12 12.8571C12.277 12.8571 12.5 13.0961 12.5 13.3929C12.5 13.6896 12.277 13.9286 12 13.9286C11.723 13.9286 11.5 13.6896 11.5 13.3929C11.5 13.0961 11.723 12.8571 12 12.8571Z" fill="white"/>
</svg>
