<svg width="18" height="19" viewBox="0 0 18 19" fill="none" xmlns="http://www.w3.org/2000/svg">
<path fill-rule="evenodd" clip-rule="evenodd" d="M9 0C5.18028 0 2.08379 3.06633 2.08379 6.84884V7.47107C2.08379 8.08695 1.89969 8.68906 1.5547 9.2015L0.529671 10.7241C-0.660004 12.4912 0.248213 14.8932 2.31736 15.452C2.99168 15.6341 3.67169 15.7881 4.35564 15.9141L4.35734 15.9186C5.0436 17.7319 6.87779 19 8.99994 19C11.1221 19 12.9563 17.7319 13.6425 15.9186L13.6442 15.9141C14.3282 15.7882 15.0083 15.6341 15.6826 15.452C17.7518 14.8932 18.66 12.4912 17.4703 10.7241L16.4453 9.2015C16.1003 8.68906 15.9162 8.08695 15.9162 7.47107V6.84884C15.9162 3.06633 12.8197 0 9 0ZM12.0132 16.1606C10.0115 16.3974 7.98836 16.3974 5.98672 16.1606C6.62118 17.0633 7.72472 17.6744 8.99994 17.6744C10.2752 17.6744 11.3787 17.0633 12.0132 16.1606ZM3.42241 6.84884C3.42241 3.79843 5.91958 1.32558 9 1.32558C12.0804 1.32558 14.5776 3.79843 14.5776 6.84884V7.47107C14.5776 8.34865 14.8399 9.20661 15.3315 9.9368L16.3565 11.4594C17.0394 12.4737 16.5181 13.8524 15.3304 14.1731C11.1858 15.2924 6.81417 15.2924 2.66957 14.1731C1.48192 13.8524 0.960619 12.4737 1.64347 11.4594L2.6685 9.9368C3.16009 9.20661 3.42241 8.34865 3.42241 7.47107V6.84884Z" fill="#877EFF"/>
</svg>
