<svg width="11" height="11" viewBox="0 0 11 11" fill="none" xmlns="http://www.w3.org/2000/svg">
<path d="M5.5 2.40625C5.5 2.31508 5.46378 2.22765 5.39932 2.16318C5.33485 2.09872 5.24742 2.0625 5.15625 2.0625C5.06508 2.0625 4.97765 2.09872 4.91318 2.16318C4.84872 2.22765 4.8125 2.31508 4.8125 2.40625V6.1875C4.81252 6.24809 4.82855 6.3076 4.85898 6.36C4.8894 6.4124 4.93314 6.45582 4.98575 6.48588L7.392 7.86088C7.47096 7.90355 7.56349 7.91365 7.6498 7.88901C7.73611 7.86437 7.80936 7.80694 7.8539 7.72901C7.89843 7.65108 7.91071 7.55882 7.88812 7.47195C7.86553 7.38508 7.80986 7.31049 7.733 7.26412L5.5 5.98813V2.40625Z" fill="#877EFF"/>
<path d="M5.5 11C6.95869 11 8.35764 10.4205 9.38909 9.38909C10.4205 8.35764 11 6.95869 11 5.5C11 4.04131 10.4205 2.64236 9.38909 1.61091C8.35764 0.579463 6.95869 0 5.5 0C4.04131 0 2.64236 0.579463 1.61091 1.61091C0.579463 2.64236 0 4.04131 0 5.5C0 6.95869 0.579463 8.35764 1.61091 9.38909C2.64236 10.4205 4.04131 11 5.5 11ZM10.3125 5.5C10.3125 6.77635 9.80547 8.00043 8.90295 8.90295C8.00043 9.80547 6.77635 10.3125 5.5 10.3125C4.22365 10.3125 2.99957 9.80547 2.09705 8.90295C1.19453 8.00043 0.6875 6.77635 0.6875 5.5C0.6875 4.22365 1.19453 2.99957 2.09705 2.09705C2.99957 1.19453 4.22365 0.6875 5.5 0.6875C6.77635 0.6875 8.00043 1.19453 8.90295 2.09705C9.80547 2.99957 10.3125 4.22365 10.3125 5.5Z" fill="#877EFF"/>
</svg>
