<svg width="14" height="14" viewBox="0 0 14 14" fill="none" xmlns="http://www.w3.org/2000/svg">
<path fill-rule="evenodd" clip-rule="evenodd" d="M5.85103 3.77414C6.02188 3.94499 6.02188 4.222 5.85103 4.39286L3.68122 6.56266L8.45833 6.56266C9.01445 6.56266 9.8389 6.7259 10.5369 7.22845C11.2572 7.74706 11.8125 8.60757 11.8125 9.91683C11.8125 10.1585 11.6166 10.3543 11.375 10.3543C11.1334 10.3543 10.9375 10.1585 10.9375 9.91683C10.9375 8.89275 10.5206 8.29493 10.0256 7.93854C9.50832 7.56609 8.87443 7.43766 8.45833 7.43766L3.68122 7.43766L5.85103 9.60747C6.02188 9.77833 6.02188 10.0553 5.85103 10.2262C5.68017 10.397 5.40316 10.397 5.23231 10.2262L2.31564 7.30952C2.14479 7.13867 2.14479 6.86166 2.31564 6.6908L5.23231 3.77414C5.40316 3.60328 5.68017 3.60328 5.85103 3.77414Z" fill="#FFB620"/>
</svg>
