<svg width="58" height="53" viewBox="0 0 58 53" fill="none" xmlns="http://www.w3.org/2000/svg">
<path fill-rule="evenodd" clip-rule="evenodd" d="M37.1062 3.13604C37.1464 3.17159 37.1866 3.20723 37.227 3.24295L49.7704 14.3429C52.1108 16.4139 54.051 18.1308 55.383 19.6893C56.7829 21.3273 57.78 23.0909 57.78 25.2731C57.78 27.4554 56.7829 29.2189 55.383 30.8569C54.051 32.4154 52.1108 34.1323 49.7704 36.2033L37.227 47.3032C37.1866 47.339 37.1463 47.3745 37.1062 47.4103C36.0924 48.3075 35.1462 49.1452 34.3287 49.6825C33.526 50.2103 32.0662 50.9768 30.431 50.2454C28.7958 49.5145 28.4014 47.9192 28.2643 46.9713C28.1245 46.0062 28.1248 44.7455 28.125 43.3948C28.125 43.3414 28.125 43.2876 28.125 43.2339V38.354C23.5891 38.6654 18.9926 39.8645 14.972 41.8152C10.244 44.1086 6.46811 47.3607 4.41889 51.2467C3.91766 52.1972 2.82968 52.6844 1.78271 52.4276C0.735746 52.1703 0 51.2355 0 50.1618C0 35.4745 4.31681 25.9111 10.4891 20.0316C15.8691 14.9069 22.4261 12.804 28.125 12.3639V7.31218C28.125 7.25842 28.125 7.20477 28.125 7.15127C28.1248 5.80067 28.1245 4.54011 28.2643 3.57489C28.4014 2.62702 28.7958 1.03166 30.431 0.3006C32.0662 -0.430458 33.526 0.335996 34.3287 0.863646C35.1462 1.40096 36.0924 2.23857 37.1062 3.13604ZM32.8221 5.60142C33.1754 5.90288 33.5973 6.27469 34.1128 6.73086L46.5262 17.716C49.0297 19.9313 50.7188 21.4334 51.813 22.7136C52.8641 23.9431 53.0925 24.6612 53.0925 25.2731C53.0925 25.885 52.8641 26.6031 51.813 27.8326C50.7188 29.1129 49.0297 30.6149 46.5262 32.8303L34.1128 43.8155C33.5973 44.2714 33.1754 44.6432 32.8221 44.9449C32.8137 44.4815 32.8125 43.9208 32.8125 43.2339V35.9398C32.8125 34.6511 31.7632 33.6065 30.4688 33.6065C24.492 33.6065 18.2811 35.0187 12.9187 37.6201C10.0474 39.013 7.37438 40.7699 5.106 42.8721C6.25841 33.3925 9.66379 27.2764 13.7297 23.4035C18.7923 18.581 25.1888 16.9398 30.4688 16.9398C31.7632 16.9398 32.8125 15.8951 32.8125 14.6064V7.31218C32.8125 6.62555 32.8137 6.06461 32.8221 5.60142Z" fill="#877EFF"/>
</svg>
