<svg width="16" height="17" viewBox="0 0 16 17" fill="none" xmlns="http://www.w3.org/2000/svg">
<path fill-rule="evenodd" clip-rule="evenodd" d="M12.699 1.49736C11.8324 1.66185 10.664 2.0757 9.02421 2.65887L5.31216 3.97903C3.99362 4.44795 3.0386 4.78811 2.36405 5.09421C1.65881 5.41423 1.40794 5.6373 1.32646 5.78684C1.07549 6.24742 1.07549 6.81626 1.32645 7.27684C1.40793 7.42638 1.65881 7.64945 2.36404 7.96947C3.03859 8.27557 3.99362 8.61573 5.31216 9.08465C5.33298 9.09206 5.35354 9.09935 5.37384 9.10656C5.73397 9.23437 6.01394 9.33373 6.25478 9.50575C6.48681 9.67148 6.68613 9.88414 6.84147 10.1317C7.0027 10.3887 7.09583 10.6874 7.21562 11.0716C7.22237 11.0933 7.22921 11.1152 7.23615 11.1374C7.67566 12.5442 7.99448 13.5631 8.28138 14.2828C8.58133 15.0352 8.79041 15.3029 8.93056 15.3898C9.36225 15.6576 9.89542 15.6576 10.3271 15.3898C10.4673 15.3029 10.6763 15.0352 10.9763 14.2828C11.2632 13.5631 11.582 12.5442 12.0215 11.1374L13.2589 7.17693C13.8055 5.42743 14.1934 4.18082 14.3475 3.25617C14.5024 2.32712 14.3841 1.93248 14.1619 1.69544C13.9397 1.45839 13.5698 1.33209 12.699 1.49736ZM12.4997 0.301729C13.4643 0.118653 14.333 0.160613 14.9667 0.836723C15.6004 1.51283 15.6398 2.43972 15.4682 3.46886C15.2976 4.49179 14.8817 5.82299 14.3551 7.50837L13.0922 11.5506C12.6637 12.9222 12.3308 13.9879 12.0237 14.7581C11.7276 15.5011 11.3987 16.1299 10.8992 16.4397C10.1138 16.9268 9.14385 16.9268 8.35849 16.4397C7.85898 16.1299 7.53012 15.5011 7.23395 14.7581C6.9269 13.9879 6.59396 12.9222 6.16546 11.5507L6.15633 11.5214C6.00621 11.0409 5.96045 10.9106 5.89562 10.8073C5.82306 10.6916 5.72996 10.5923 5.62158 10.5149C5.52474 10.4457 5.40258 10.3969 4.95222 10.2367L4.92478 10.227C3.6393 9.76982 2.64047 9.41459 1.91855 9.087C1.22219 8.771 0.632821 8.42013 0.342427 7.88719C-0.114143 7.04928 -0.114142 6.0144 0.342428 5.17648C0.632821 4.64354 1.2222 4.29268 1.91855 3.97668C2.64048 3.64908 3.63933 3.29386 4.92483 2.83668L8.71358 1.48925C10.2932 0.927443 11.5409 0.483698 12.4997 0.301729ZM12.3561 3.62685C12.5771 3.86529 12.5751 4.24974 12.3516 4.48555L9.31633 7.68826C9.09285 7.92407 8.73251 7.92194 8.51149 7.6835C8.29048 7.44507 8.29247 7.06061 8.51595 6.8248L11.5512 3.62209C11.7747 3.38628 12.1351 3.38841 12.3561 3.62685Z" fill="black"/>
</svg>
