<svg width="18" height="4" viewBox="0 0 18 4" fill="none" xmlns="http://www.w3.org/2000/svg">
<path d="M2 4C1.46957 4 0.960859 3.78929 0.585787 3.41421C0.210714 3.03914 0 2.53043 0 2C0 1.46957 0.210714 0.960859 0.585787 0.585786C0.960859 0.210713 1.46957 0 2 0C2.53043 0 3.03914 0.210713 3.41421 0.585786C3.78929 0.960859 4 1.46957 4 2C4 2.53043 3.78929 3.03914 3.41421 3.41421C3.03914 3.78929 2.53043 4 2 4ZM8.66667 4C8.13623 4 7.62753 3.78929 7.25245 3.41421C6.87738 3.03914 6.66667 2.53043 6.66667 2C6.66667 1.46957 6.87738 0.960859 7.25245 0.585786C7.62753 0.210713 8.13623 0 8.66667 0C9.1971 0 9.70581 0.210713 10.0809 0.585786C10.456 0.960859 10.6667 1.46957 10.6667 2C10.6667 2.53043 10.456 3.03914 10.0809 3.41421C9.70581 3.78929 9.1971 4 8.66667 4ZM15.3333 4C14.8029 4 14.2942 3.78929 13.9191 3.41421C13.544 3.03914 13.3333 2.53043 13.3333 2C13.3333 1.46957 13.544 0.960859 13.9191 0.585786C14.2942 0.210713 14.8029 0 15.3333 0C15.8638 0 16.3725 0.210713 16.7475 0.585786C17.1226 0.960859 17.3333 1.46957 17.3333 2C17.3333 2.53043 17.1226 3.03914 16.7475 3.41421C16.3725 3.78929 15.8638 4 15.3333 4Z" fill="white"/>
</svg>
