<svg width="23" height="23" viewBox="0 0 23 23" fill="none" xmlns="http://www.w3.org/2000/svg">
<g clip-path="url(#clip0_11_37)">
<path d="M11.5 21.5625C8.83126 21.5625 6.27182 20.5023 4.38474 18.6153C2.49765 16.7282 1.4375 14.1687 1.4375 11.5C1.4375 8.83126 2.49765 6.27182 4.38474 4.38474C6.27182 2.49765 8.83126 1.4375 11.5 1.4375C14.1687 1.4375 16.7282 2.49765 18.6153 4.38474C20.5023 6.27182 21.5625 8.83126 21.5625 11.5C21.5625 14.1687 20.5023 16.7282 18.6153 18.6153C16.7282 20.5023 14.1687 21.5625 11.5 21.5625ZM11.5 23C14.55 23 17.4751 21.7884 19.6317 19.6317C21.7884 17.4751 23 14.55 23 11.5C23 8.45001 21.7884 5.52494 19.6317 3.36827C17.4751 1.2116 14.55 0 11.5 0C8.45001 0 5.52494 1.2116 3.36827 3.36827C1.2116 5.52494 0 8.45001 0 11.5C0 14.55 1.2116 17.4751 3.36827 19.6317C5.52494 21.7884 8.45001 23 11.5 23Z" fill="#5C5C7B"/>
<path d="M6.16014 13.7526C6.32522 13.6573 6.5214 13.6314 6.70552 13.6808C6.88965 13.7301 7.04663 13.8505 7.14195 14.0156C7.58364 14.7807 8.21898 15.4159 8.98408 15.8575C9.74918 16.2991 10.6171 16.5315 11.5004 16.5312C12.3838 16.5315 13.2517 16.2991 14.0168 15.8575C14.7819 15.4159 15.4173 14.7807 15.8589 14.0156C15.9058 13.9332 15.9685 13.8609 16.0434 13.8028C16.1183 13.7447 16.204 13.7021 16.2955 13.6772C16.3869 13.6524 16.4824 13.6459 16.5764 13.6581C16.6704 13.6703 16.7611 13.701 16.8432 13.7484C16.9252 13.7958 16.9971 13.859 17.0547 13.9343C17.1123 14.0096 17.1544 14.0955 17.1786 14.1872C17.2029 14.2788 17.2087 14.3743 17.1959 14.4682C17.1831 14.5622 17.1518 14.6526 17.1038 14.7344C16.536 15.7179 15.7192 16.5347 14.7355 17.1024C13.7519 17.6702 12.6362 17.969 11.5004 17.9688C10.3647 17.969 9.24897 17.6702 8.26535 17.1024C7.28173 16.5347 6.46493 15.7179 5.89707 14.7344C5.80177 14.5693 5.77594 14.3731 5.82527 14.189C5.8746 14.0049 5.99506 13.8479 6.16014 13.7526ZM10.0629 9.34375C10.0629 10.534 9.41895 11.5 8.62545 11.5C7.83195 11.5 7.18795 10.534 7.18795 9.34375C7.18795 8.1535 7.83195 7.1875 8.62545 7.1875C9.41895 7.1875 10.0629 8.1535 10.0629 9.34375ZM15.8129 9.34375C15.8129 10.534 15.1689 11.5 14.3754 11.5C13.5819 11.5 12.9379 10.534 12.9379 9.34375C12.9379 8.1535 13.5819 7.1875 14.3754 7.1875C15.1689 7.1875 15.8129 8.1535 15.8129 9.34375Z" fill="#5C5C7B"/>
</g>
<defs>
<clipPath id="clip0_11_37">
<rect width="23" height="23" fill="white"/>
</clipPath>
</defs>
</svg>
