<svg width="26" height="26" viewBox="0 0 26 26" fill="none" xmlns="http://www.w3.org/2000/svg">
<path d="M17.8263 8.07623C18.0552 7.8583 18.3599 7.73782 18.6759 7.74021C18.992 7.7426 19.2947 7.86768 19.5203 8.08905C19.7459 8.31042 19.8767 8.61076 19.885 8.92671C19.8934 9.24266 19.7786 9.5495 19.5651 9.78248L13.0813 17.8912C12.9698 18.0113 12.8353 18.1077 12.6857 18.1746C12.5361 18.2415 12.3746 18.2775 12.2107 18.2805C12.0469 18.2836 11.8841 18.2535 11.7322 18.1922C11.5802 18.1309 11.4422 18.0396 11.3263 17.9237L7.02657 13.624C6.90683 13.5124 6.81079 13.3779 6.74418 13.2284C6.67757 13.0789 6.64175 12.9175 6.63886 12.7538C6.63597 12.5902 6.66608 12.4276 6.72737 12.2759C6.78867 12.1241 6.87991 11.9863 6.99564 11.8705C7.11137 11.7548 7.24922 11.6636 7.40098 11.6023C7.55273 11.541 7.71528 11.5109 7.87892 11.5138C8.04256 11.5167 8.20395 11.5525 8.35345 11.6191C8.50295 11.6857 8.6375 11.7817 8.74907 11.9015L12.1518 15.3026L17.7954 8.11198L17.8263 8.07623Z" fill="#685DFF"/>
</svg>
