<svg width="26" height="26" viewBox="0 0 26 26" fill="none" xmlns="http://www.w3.org/2000/svg">
<path d="M14.5763 8.07626C14.8052 7.85833 15.1099 7.73785 15.4259 7.74024C15.742 7.74263 16.0447 7.86771 16.2703 8.08908C16.4959 8.31045 16.6267 8.61079 16.635 8.92674C16.6434 9.24269 16.5286 9.54953 16.3151 9.78251L9.83132 17.8913C9.71983 18.0113 9.58527 18.1077 9.43569 18.1746C9.2861 18.2415 9.12456 18.2775 8.96073 18.2806C8.7969 18.2836 8.63414 18.2536 8.48218 18.1923C8.33022 18.131 8.19218 18.0396 8.07632 17.9238L3.77657 13.624C3.65683 13.5124 3.56079 13.3779 3.49418 13.2284C3.42757 13.0789 3.39175 12.9175 3.38886 12.7539C3.38597 12.5902 3.41608 12.4277 3.47737 12.2759C3.53867 12.1242 3.62991 11.9863 3.74564 11.8706C3.86137 11.7548 3.99922 11.6636 4.15098 11.6023C4.30273 11.541 4.46528 11.5109 4.62892 11.5138C4.79256 11.5167 4.95395 11.5525 5.10345 11.6191C5.25295 11.6857 5.3875 11.7818 5.49907 11.9015L8.90182 15.3026L14.5438 8.11201L14.5763 8.07626ZM13.0813 16.4288L14.5763 17.9238C14.6922 18.0394 14.8301 18.1305 14.9819 18.1916C15.1337 18.2528 15.2963 18.2828 15.4599 18.2797C15.6235 18.2767 15.7849 18.2407 15.9343 18.174C16.0838 18.1073 16.2182 18.0111 16.3297 17.8913L22.8167 9.78251C22.9332 9.66746 23.0254 9.53011 23.0876 9.37866C23.1499 9.2272 23.181 9.06476 23.1791 8.90101C23.1772 8.73727 23.1423 8.57559 23.0765 8.42563C23.0108 8.27567 22.9154 8.14051 22.7962 8.02821C22.6771 7.91591 22.5365 7.82878 22.3829 7.77202C22.2293 7.71526 22.0658 7.69004 21.9022 7.69786C21.7387 7.70569 21.5784 7.74639 21.4309 7.81755C21.2834 7.8887 21.1517 7.98885 21.0438 8.11201L15.4002 15.3026L14.6121 14.5129L13.0813 16.4288Z" fill="#685DFF"/>
</svg>
