<svg width="81" height="80" viewBox="0 0 81 80" fill="none" xmlns="http://www.w3.org/2000/svg">
<path fill-rule="evenodd" clip-rule="evenodd" d="M81 39.998C81 49.7603 77.3856 59.1856 70.8378 66.4984C64.29 73.8112 55.2608 78.5065 45.4511 79.7L55.08 44.2082C55.7995 41.7822 55.8865 39.216 55.3331 36.7479C54.7687 34.238 53.5606 31.9135 51.8248 29.9975H79.7242C80.5747 33.2646 81.0033 36.6247 81 39.998ZM8.33537e-06 39.998C-0.00043621 50.5443 4.21575 60.664 11.7312 68.1554C19.2467 75.6468 29.4533 79.9038 40.1304 80L47.3496 53.3937C46.1897 53.9716 44.9596 54.4001 43.6894 54.6687C40.7394 55.2949 37.6675 55.039 34.8654 53.9337C32.875 53.1481 31.0755 51.9552 29.5852 50.4335L3.20457 24.3772C1.08634 29.3191 -0.0034774 34.6315 8.33537e-06 39.998ZM25.3327 39.163L5.60926 19.677C9.45001 13.2496 15.0341 8.01116 21.7306 4.5535C28.4271 1.09584 35.9691 -0.443228 43.5047 0.110176C51.0402 0.66358 58.2689 3.2874 64.374 7.6852C70.4792 12.083 75.2175 18.0795 78.0536 24.9973H40.8341C38.6576 24.9489 36.496 25.3633 34.4959 26.2123C31.8964 27.3104 29.6603 29.1056 28.0408 31.3945C26.4213 33.6834 25.4832 36.3745 25.3327 39.163ZM40.5 49.9985C43.1853 49.9985 45.7606 48.9449 47.6594 47.0694C49.5583 45.194 50.625 42.6503 50.625 39.998C50.625 37.3457 49.5583 34.8021 47.6594 32.9266C45.7606 31.0511 43.1853 29.9975 40.5 29.9975C37.8147 29.9975 35.2393 31.0511 33.3405 32.9266C31.4417 34.8021 30.375 37.3457 30.375 39.998C30.375 42.6503 31.4417 45.194 33.3405 47.0694C35.2393 48.9449 37.8147 49.9985 40.5 49.9985Z" fill="white"/>
</svg>
