<svg width="57" height="57" viewBox="0 0 57 57" fill="none" xmlns="http://www.w3.org/2000/svg">
<path d="M33.3544 32.8858C33.1119 33.1037 32.7569 33.4235 32.7569 33.9718C32.7569 34.5411 33.133 35.1139 33.8112 35.5743C36.8932 37.7285 42.6707 37.472 42.9202 37.4649H42.9272C45.2712 37.4649 47.5661 36.8324 49.5833 35.641C51.6116 34.4536 53.2946 32.7571 54.4658 30.7193C55.6369 28.6815 56.2555 26.3732 56.2604 24.0229C56.3236 19.3981 54.7141 16.2282 53.9199 14.6609L53.7793 14.3797C49.1018 5.2848 39.0615 0.059082 28.1462 0.059082C22.36 0.0590902 16.7147 1.84446 11.9806 5.17155C7.24658 8.49865 3.65443 13.2054 1.69434 18.6496C5.26132 14.2848 11.218 11.5226 17.6034 11.5226C27.5488 11.5226 35.2099 18.147 35.2099 28.3806H35.1958V28.3876C35.1958 29.5754 34.6054 31.3115 33.4844 32.7593L33.5055 32.7382L33.3544 32.8858Z" fill="white"/>
<path d="M0.0671576 27.305C-0.049698 31.7171 0.856007 36.0965 2.7134 40.1004C4.79346 44.5288 7.99317 48.3378 11.9963 51.1507C15.9994 53.9637 20.6673 55.6833 25.5386 56.1395C24.5822 55.779 23.6591 55.3356 22.7799 54.8146H22.7447L22.323 54.5511C20.1768 53.2125 18.3142 51.4657 16.8408 49.4097C15.1637 47.1144 14.0093 44.4798 13.4586 41.6909C12.9079 38.902 12.9743 36.0264 13.6531 33.2659C14.332 30.5055 15.6067 27.927 17.388 25.7115C19.1693 23.4961 21.4138 21.6974 23.9642 20.4416L23.9993 20.4275L24.0872 20.3854C24.8181 20.041 26.266 19.3592 28.1883 19.3838C28.6428 19.3861 29.0927 19.4248 29.5378 19.4998C28.5061 18.5094 27.3294 17.6822 26.0481 17.0468L26.013 17.0292C22.3406 15.1069 18.3027 15.0402 17.6033 15.0402C9.02854 15.0402 0.650526 20.7825 0.0671576 27.305ZM36.1341 55.1098C36.4457 55.0161 36.7561 54.9177 37.0654 54.8146C36.7069 54.9247 36.3473 55.0255 35.9865 55.1169L36.1341 55.1098Z" fill="white"/>
<path d="M35.9757 55.1172C36.3337 55.0276 36.6888 54.9268 37.0405 54.8149L37.3287 54.7271C43.3799 52.6349 48.5384 48.5448 51.955 43.13C52.0541 42.9655 52.0966 42.7731 52.0759 42.5823C52.0553 42.3914 51.9727 42.2125 51.8408 42.073C51.7089 41.9335 51.5349 41.8411 51.3454 41.8099C51.156 41.7786 50.9616 41.8103 50.7918 41.9C50.0374 42.2936 49.2608 42.638 48.4619 42.9332C45.9396 43.8694 43.2698 44.3456 40.5794 44.3389C30.1877 44.3389 21.1384 37.2014 21.1384 28.0186C21.1455 27.543 21.1994 27.0757 21.3001 26.6165C18.5977 29.3078 16.9489 32.8782 16.6523 36.6806C16.3558 40.483 17.4311 44.2658 19.6835 47.3436L19.6941 47.3612C20.8011 48.911 22.1787 50.2464 23.7636 51.3007H23.7741L24.2802 51.6169C27.3622 53.5498 30.3282 55.4053 35.9757 55.1172Z" fill="white"/>
</svg>
