<svg width="54" height="57" viewBox="0 0 54 57" fill="none" xmlns="http://www.w3.org/2000/svg">
<path d="M46.6244 12.1339C48.4889 13.1171 50.8763 16.2379 52.0473 19.1271C53.7516 23.5338 54.3541 28.3054 53.8003 33.0101L53.7689 33.2844L53.6783 34.0824C52.5228 40.8968 48.9099 47.0206 43.5529 51.245C38.196 55.4693 31.4843 57.4872 24.7429 56.9002C18.0015 56.3132 11.7204 53.164 7.13966 48.0743C2.55889 42.9846 0.0113492 36.3244 0 29.4084V29.2659C0.0580859 27.9716 0.190522 26.6867 0.397307 25.4113C0.432159 25.1477 0.658694 23.9151 0.710971 23.6692L0.745823 23.4876C1.40677 20.4809 2.63949 17.6363 4.37387 15.1157C5.13363 14.0113 5.97587 12.9782 6.9006 12.0163C7.7138 11.1661 8.59439 10.3942 9.54235 9.70069C9.82804 9.50807 10.1315 9.3446 10.4485 9.21262C10.3858 10.1674 10.3091 14.7452 11.3825 16.1346H11.393C13.1884 13.9754 15.406 12.2243 17.9032 10.9939C17.3367 13.2116 17.362 15.544 17.9764 17.7484C18.2204 17.9146 18.4527 18.0951 18.6734 18.2899C19.0464 18.6105 19.4611 19.0273 20.2557 19.8324L20.4927 20.0676L20.5241 20.0996C20.7566 20.3308 21.0047 20.545 21.2664 20.7409C22.6012 21.7633 24.5529 22.7466 25.818 23.3807C26.5185 23.7369 27.0099 23.9792 27.0692 24.0682L27.0831 24.0967C27.0413 24.7843 24.6609 27.1534 23.8315 27.1534C16.1432 27.1534 14.8955 31.9093 14.8955 31.9093C15.1988 35.4611 17.3839 38.4607 20.1825 40.3061C20.6745 40.6247 21.1855 40.9114 21.7125 41.1647C21.9774 41.2834 22.2422 41.3951 22.5071 41.4996C23.6398 41.9092 24.8247 42.1408 26.0271 42.1907C36.6324 42.7001 40.5079 32.2014 36.9322 25.2866C36.295 24.0587 35.4296 22.966 34.3845 22.0768C33.7722 21.5617 33.1046 21.1195 32.3945 20.7587L32.384 20.7516C34.6774 20.4474 36.9997 21.0237 38.9013 22.3689C37.712 20.2301 35.9912 18.4504 33.9128 17.2099C31.8345 15.9693 29.4724 15.312 27.0657 15.3045C26.7962 15.3069 26.529 15.3187 26.2641 15.3401L26.1177 15.3508L26.1108 15.3472C25.1672 15.4164 24.2331 15.5835 23.3226 15.846C22.9478 15.4603 22.5608 15.0872 22.1621 14.7274C21.9411 14.5321 21.7083 14.3513 21.4651 14.1859C21.341 13.7365 21.2387 13.2811 21.1584 12.8214C22.6748 12.2569 24.2606 11.9104 25.8703 11.7919L26.0445 11.7812C26.2258 11.7669 26.4802 11.7456 26.759 11.7384C27.8464 7.87312 30.4149 2.99606 35.4231 0L35.4126 0.0178125L35.4231 0.01425L35.4301 0.007125H35.437L35.444 0H35.4963C35.5127 0.00293729 35.5275 0.0117839 35.5381 0.0249375C35.7158 0.619939 35.9566 1.19333 36.256 1.73494C36.4652 2.09831 36.6777 2.451 36.8938 2.793C38.6016 5.55037 40.4591 7.70569 42.2714 9.804C44.9585 12.9176 47.541 15.9137 49.3672 20.5627L49.3637 20.5164C48.8826 17.5936 47.9583 14.7655 46.6244 12.1339Z" fill="white"/>
</svg>
