<svg width="56" height="56" viewBox="0 0 56 56" fill="none" xmlns="http://www.w3.org/2000/svg">
<path d="M28 56C35.4261 56 42.548 53.05 47.799 47.799C53.05 42.548 56 35.4261 56 28C56 20.5739 53.05 13.452 47.799 8.20101C42.548 2.94999 35.4261 0 28 0C20.5739 0 13.452 2.94999 8.20101 8.20101C2.94999 13.452 0 20.5739 0 28C0 35.4261 2.94999 42.548 8.20101 47.799C13.452 53.05 20.5739 56 28 56ZM28.875 4.375V9.625C28.875 9.85706 28.7828 10.0796 28.6187 10.2437C28.4546 10.4078 28.2321 10.5 28 10.5C27.7679 10.5 27.5454 10.4078 27.3813 10.2437C27.2172 10.0796 27.125 9.85706 27.125 9.625V4.375C27.125 4.14294 27.2172 3.92038 27.3813 3.75628C27.5454 3.59219 27.7679 3.5 28 3.5C28.2321 3.5 28.4546 3.59219 28.6187 3.75628C28.7828 3.92038 28.875 4.14294 28.875 4.375ZM28.875 46.375V51.625C28.875 51.8571 28.7828 52.0796 28.6187 52.2437C28.4546 52.4078 28.2321 52.5 28 52.5C27.7679 52.5 27.5454 52.4078 27.3813 52.2437C27.2172 52.0796 27.125 51.8571 27.125 51.625V46.375C27.125 46.1429 27.2172 45.9204 27.3813 45.7563C27.5454 45.5922 27.7679 45.5 28 45.5C28.2321 45.5 28.4546 45.5922 28.6187 45.7563C28.7828 45.9204 28.875 46.1429 28.875 46.375ZM15.75 6.783C15.8495 6.7252 15.9594 6.68759 16.0734 6.67232C16.1874 6.65705 16.3034 6.66442 16.4146 6.694C16.5257 6.72358 16.63 6.7748 16.7214 6.84473C16.8127 6.91465 16.8894 7.00191 16.947 7.1015L19.572 11.6515C19.688 11.8529 19.7193 12.0922 19.6589 12.3167C19.5985 12.5412 19.4514 12.7325 19.25 12.8485C19.0486 12.9645 18.8093 12.9958 18.5848 12.9354C18.3603 12.875 18.169 12.7279 18.053 12.5265L15.428 7.9765C15.3127 7.77548 15.2818 7.53691 15.3422 7.31316C15.4025 7.0894 15.5492 6.89874 15.75 6.783ZM36.75 43.155C36.951 43.0397 37.1896 43.0088 37.4133 43.0692C37.6371 43.1295 37.8278 43.2762 37.9435 43.477L40.5685 48.0235C40.6342 48.123 40.679 48.2349 40.6999 48.3523C40.7208 48.4698 40.7175 48.5902 40.6902 48.7063C40.6628 48.8224 40.6121 48.9317 40.541 49.0274C40.4699 49.1232 40.3799 49.2034 40.2767 49.2632C40.1735 49.3229 40.0591 49.3609 39.9407 49.3748C39.8222 49.3888 39.7022 49.3783 39.5879 49.3442C39.4736 49.31 39.3675 49.2529 39.2762 49.1762C39.1848 49.0996 39.11 49.0051 39.0565 48.8985L36.4315 44.3485C36.317 44.1482 36.2862 43.9108 36.3459 43.688C36.4055 43.4651 36.5508 43.2748 36.75 43.1585V43.155ZM7.98 15.428L12.523 18.053C12.7244 18.169 12.8715 18.3603 12.9319 18.5848C12.9923 18.8093 12.961 19.0486 12.845 19.25C12.729 19.4514 12.5377 19.5985 12.3132 19.6589C12.0887 19.7193 11.8494 19.688 11.648 19.572L7.1015 16.947C6.90007 16.831 6.75298 16.6397 6.69259 16.4152C6.63221 16.1907 6.66347 15.9514 6.7795 15.75C6.89553 15.5486 7.08683 15.4015 7.31131 15.3411C7.53579 15.2807 7.77857 15.312 7.98 15.428ZM44.352 36.428L48.8985 39.053C48.9982 39.1105 49.0857 39.187 49.1558 39.2782C49.226 39.3695 49.2775 39.4737 49.3074 39.5848C49.3373 39.696 49.345 39.8119 49.3301 39.9261C49.3152 40.0402 49.278 40.1503 49.2205 40.25C49.163 40.3497 49.0865 40.4372 48.9953 40.5073C48.904 40.5775 48.7998 40.629 48.6887 40.6589C48.5775 40.6888 48.4616 40.6965 48.3475 40.6816C48.2333 40.6667 48.1232 40.6295 48.0235 40.572L43.4735 37.947C43.2721 37.831 43.125 37.6397 43.0646 37.4152C43.0042 37.1907 43.0355 36.9514 43.1515 36.75C43.2675 36.5486 43.4588 36.4015 43.6833 36.3411C43.9078 36.2807 44.1471 36.312 44.3485 36.428H44.352ZM3.5 28C3.5 27.7679 3.59219 27.5454 3.75628 27.3813C3.92038 27.2172 4.14294 27.125 4.375 27.125H9.625C9.85706 27.125 10.0796 27.2172 10.2437 27.3813C10.4078 27.5454 10.5 27.7679 10.5 28C10.5 28.2321 10.4078 28.4546 10.2437 28.6187C10.0796 28.7828 9.85706 28.875 9.625 28.875H4.375C4.14294 28.875 3.92038 28.7828 3.75628 28.6187C3.59219 28.4546 3.5 28.2321 3.5 28ZM45.5 28C45.5 27.7679 45.5922 27.5454 45.7563 27.3813C45.9204 27.2172 46.1429 27.125 46.375 27.125H51.625C51.8571 27.125 52.0796 27.2172 52.2437 27.3813C52.4078 27.5454 52.5 27.7679 52.5 28C52.5 28.2321 52.4078 28.4546 52.2437 28.6187C52.0796 28.7828 51.8571 28.875 51.625 28.875H46.375C46.1429 28.875 45.9204 28.7828 45.7563 28.6187C45.5922 28.4546 45.5 28.2321 45.5 28ZM7.105 39.0565L11.648 36.4315C11.8474 36.3314 12.0775 36.3112 12.2912 36.3751C12.505 36.439 12.6863 36.5821 12.798 36.7752C12.9097 36.9683 12.9435 37.1968 12.8924 37.4139C12.8413 37.6311 12.7091 37.8205 12.523 37.9435L7.9765 40.5685C7.77713 40.6686 7.54704 40.6888 7.33329 40.6249C7.11953 40.561 6.93825 40.4179 6.8265 40.2248C6.71476 40.0317 6.68099 39.8032 6.73211 39.5861C6.78322 39.3689 6.91886 39.1795 7.105 39.0565ZM43.477 18.0565L48.0235 15.4315C48.123 15.3731 48.2332 15.335 48.3475 15.3194C48.4618 15.3038 48.5781 15.3109 48.6897 15.3404C48.8012 15.3699 48.9059 15.4212 48.9975 15.4913C49.0892 15.5614 49.1661 15.6489 49.2238 15.7488C49.2815 15.8488 49.3189 15.9591 49.3337 16.0736C49.3486 16.188 49.3407 16.3042 49.3105 16.4156C49.2802 16.527 49.2283 16.6313 49.1576 16.7225C49.0869 16.8137 48.9988 16.89 48.8985 16.947L44.3485 19.572C44.1471 19.688 43.9078 19.7193 43.6833 19.6589C43.4588 19.5985 43.2675 19.4514 43.1515 19.25C43.0355 19.0486 43.0042 18.8093 43.0646 18.5848C43.125 18.3603 43.2721 18.169 43.4735 18.053L43.477 18.0565ZM15.75 49.2135C15.5492 49.0978 15.4025 48.9071 15.3422 48.6833C15.2818 48.4596 15.3127 48.221 15.428 48.02L18.053 43.47C18.169 43.2686 18.3603 43.1215 18.5848 43.0611C18.8093 43.0007 19.0486 43.032 19.25 43.148C19.4514 43.264 19.5985 43.4553 19.6589 43.6798C19.7193 43.9043 19.688 44.1436 19.572 44.345L16.947 48.895C16.8894 48.9946 16.8127 49.0818 16.7214 49.1518C16.63 49.2217 16.5257 49.2729 16.4146 49.3025C16.3034 49.3321 16.1874 49.3395 16.0734 49.3242C15.9594 49.3089 15.8495 49.2713 15.75 49.2135ZM36.75 12.8415C36.6504 12.7839 36.5632 12.7072 36.4932 12.6159C36.4233 12.5245 36.3721 12.4202 36.3425 12.3091C36.3129 12.1979 36.3055 12.0819 36.3208 11.9679C36.3361 11.8539 36.3737 11.744 36.4315 11.6445L39.0565 7.098C39.11 6.99142 39.1848 6.8969 39.2762 6.82025C39.3675 6.74361 39.4736 6.68646 39.5879 6.65231C39.7022 6.61816 39.8222 6.60773 39.9407 6.62166C40.0591 6.6356 40.1735 6.6736 40.2767 6.73334C40.3799 6.79308 40.4699 6.87329 40.541 6.96905C40.6121 7.06481 40.6628 7.1741 40.6902 7.29019C40.7175 7.40629 40.7208 7.52675 40.6999 7.64417C40.679 7.76159 40.6342 7.87349 40.5685 7.973L37.9435 12.523C37.8266 12.7226 37.6354 12.8678 37.4118 12.9268C37.1881 12.9858 36.9502 12.9574 36.75 12.8415ZM22.729 4.9525L23.184 6.643C23.2139 6.754 23.2216 6.8698 23.2067 6.98378C23.1918 7.09776 23.1547 7.2077 23.0973 7.30731C22.9814 7.50849 22.7904 7.65541 22.5662 7.71575C22.3421 7.77609 22.1031 7.7449 21.9019 7.62905C21.7008 7.5132 21.5538 7.32217 21.4935 7.098L21.0385 5.4075C20.9782 5.18333 21.0094 4.94436 21.1252 4.74318C21.2411 4.54201 21.4321 4.39509 21.6562 4.33475C21.8804 4.27441 22.1194 4.3056 22.3206 4.42145C22.5217 4.5373 22.6687 4.72833 22.729 4.9525ZM34.51 48.902L34.965 50.5925C34.9949 50.7035 35.0026 50.8193 34.9877 50.9333C34.9728 51.0473 34.9357 51.1572 34.8783 51.2568C34.7624 51.458 34.5714 51.6049 34.3473 51.6653C34.1231 51.7256 33.8841 51.6944 33.6829 51.5786C33.4818 51.4627 33.3348 51.2717 33.2745 51.0475L32.8195 49.357C32.7592 49.1328 32.7903 48.8939 32.9062 48.6927C33.0221 48.4915 33.2131 48.3446 33.4373 48.2842C33.6614 48.2239 33.9004 48.2551 34.1016 48.3709C34.3027 48.4868 34.4497 48.6778 34.51 48.902ZM10.675 10.675C10.7563 10.5935 10.8528 10.5289 10.9591 10.4848C11.0654 10.4406 11.1794 10.4179 11.2945 10.4179C11.4096 10.4179 11.5236 10.4406 11.6299 10.4848C11.7362 10.5289 11.8327 10.5935 11.914 10.675L13.1495 11.914C13.2985 12.0807 13.3781 12.2981 13.3718 12.5216C13.3655 12.7451 13.274 12.9578 13.1159 13.1159C12.9578 13.274 12.7451 13.3655 12.5216 13.3718C12.2981 13.3781 12.0807 13.2985 11.914 13.1495L10.675 11.914C10.5935 11.8327 10.5289 11.7362 10.4848 11.6299C10.4406 11.5236 10.4179 11.4096 10.4179 11.2945C10.4179 11.1794 10.4406 11.0654 10.4848 10.9591C10.5289 10.8528 10.5935 10.7563 10.675 10.675ZM42.8505 42.8505C43.0145 42.687 43.2367 42.5952 43.4683 42.5952C43.6998 42.5952 43.922 42.687 44.086 42.8505L45.325 44.086C45.4064 44.1674 45.4709 44.2639 45.5149 44.3702C45.5589 44.4765 45.5816 44.5904 45.5816 44.7055C45.5816 44.8206 45.5589 44.9345 45.5149 45.0408C45.4709 45.1471 45.4064 45.2436 45.325 45.325C45.2436 45.4064 45.1471 45.4709 45.0408 45.5149C44.9345 45.5589 44.8206 45.5816 44.7055 45.5816C44.5904 45.5816 44.4765 45.5589 44.3702 45.5149C44.2639 45.4709 44.1674 45.4064 44.086 45.325L42.8505 44.086C42.687 43.922 42.5952 43.6998 42.5952 43.4683C42.5952 43.2367 42.687 43.0145 42.8505 42.8505ZM5.4075 21.035L7.098 21.49C7.32217 21.5503 7.5132 21.6973 7.62905 21.8984C7.7449 22.0996 7.77609 22.3386 7.71575 22.5627C7.65541 22.7869 7.50849 22.9779 7.30731 23.0938C7.10614 23.2097 6.86717 23.2408 6.643 23.1805L4.9525 22.7255C4.83605 22.701 4.72582 22.6529 4.62857 22.5843C4.53132 22.5157 4.44908 22.428 4.38689 22.3265C4.32471 22.2251 4.28387 22.112 4.26689 21.9942C4.2499 21.8764 4.25713 21.7564 4.28812 21.6415C4.31911 21.5265 4.37322 21.4192 4.44713 21.3259C4.52104 21.2326 4.61321 21.1554 4.71798 21.099C4.82276 21.0425 4.93795 21.008 5.05651 20.9976C5.17507 20.9873 5.2945 20.9977 5.4075 21.035ZM49.357 32.8125L51.0475 33.2675C51.2717 33.3278 51.4627 33.4748 51.5786 33.6759C51.6944 33.8771 51.7256 34.1161 51.6653 34.3402C51.6049 34.5644 51.458 34.7554 51.2568 34.8713C51.0556 34.9871 50.8167 35.0183 50.5925 34.958L48.902 34.503C48.791 34.4731 48.687 34.4217 48.5959 34.3516C48.5047 34.2815 48.4283 34.1942 48.3709 34.0946C48.3136 33.995 48.2764 33.885 48.2615 33.771C48.2467 33.657 48.2544 33.5413 48.2842 33.4303C48.3141 33.3193 48.3656 33.2152 48.4356 33.1241C48.5057 33.033 48.5931 32.9566 48.6927 32.8992C48.7923 32.8418 48.9022 32.8047 49.0162 32.7898C49.1302 32.7749 49.246 32.7826 49.357 32.8125ZM4.3365 34.3385C4.27654 34.1148 4.30771 33.8765 4.42318 33.6757C4.53864 33.4749 4.72899 33.3282 4.9525 33.2675L6.643 32.8125C6.754 32.7826 6.8698 32.7749 6.98378 32.7898C7.09776 32.8047 7.2077 32.8418 7.30731 32.8992C7.40693 32.9566 7.49427 33.033 7.56435 33.1241C7.63443 33.2152 7.68587 33.3193 7.71575 33.4303C7.74563 33.5413 7.75335 33.657 7.73847 33.771C7.72359 33.885 7.68641 33.995 7.62905 34.0946C7.57169 34.1942 7.49526 34.2815 7.40415 34.3516C7.31303 34.4217 7.209 34.4731 7.098 34.503L5.4075 34.958C5.18333 35.0178 4.94457 34.9862 4.74372 34.87C4.54288 34.7538 4.3964 34.5627 4.3365 34.3385ZM48.286 22.561C48.226 22.3373 48.2572 22.099 48.3727 21.8982C48.4881 21.6974 48.6785 21.5507 48.902 21.49L50.5925 21.035C50.8167 20.9747 51.0556 21.0059 51.2568 21.1217C51.458 21.2376 51.6049 21.4286 51.6653 21.6528C51.7256 21.8769 51.6944 22.1159 51.5786 22.3171C51.4627 22.5182 51.2717 22.6652 51.0475 22.7255L49.357 23.1805C49.1328 23.2403 48.8941 23.2087 48.6932 23.0925C48.4924 22.9763 48.3459 22.7852 48.286 22.561ZM10.6575 45.304C10.4926 45.1293 10.3926 44.9034 10.3741 44.6639C10.3556 44.4245 10.4198 44.1859 10.556 43.988L24.199 24.416C24.2603 24.3334 24.3334 24.2603 24.416 24.199L44.023 10.605C44.2091 10.4454 44.4486 10.3619 44.6936 10.3713C44.9386 10.3807 45.171 10.4822 45.3444 10.6556C45.5178 10.829 45.6193 11.0614 45.6287 11.3064C45.6381 11.5514 45.5546 11.7909 45.395 11.977L31.801 31.584C31.7397 31.6666 31.6666 31.7397 31.584 31.801L12.012 45.444C11.8103 45.5834 11.5662 45.6478 11.322 45.626C11.0778 45.6043 10.8489 45.4978 10.675 45.325L10.6575 45.304ZM21.658 51.6635C21.4345 51.6028 21.2441 51.4561 21.1287 51.2553C21.0132 51.0545 20.982 50.8162 21.042 50.5925L21.4935 48.902C21.5538 48.6778 21.7008 48.4868 21.9019 48.3709C22.1031 48.2551 22.3421 48.2239 22.5662 48.2842C22.7904 48.3446 22.9814 48.4915 23.0973 48.6927C23.2132 48.8939 23.2443 49.1328 23.184 49.357L22.729 51.0475C22.6683 51.271 22.5216 51.4614 22.3208 51.5768C22.12 51.6923 21.8817 51.7235 21.658 51.6635ZM33.4355 7.714C33.2113 7.6541 33.0202 7.50762 32.904 7.30678C32.7878 7.10593 32.7562 6.86717 32.816 6.643L33.271 4.9525C33.3009 4.8415 33.3523 4.73747 33.4224 4.64635C33.4925 4.55524 33.5798 4.47881 33.6794 4.42145C33.779 4.36409 33.889 4.32691 34.003 4.31203C34.117 4.29715 34.2327 4.30487 34.3438 4.33475C34.4548 4.36463 34.5588 4.41607 34.6499 4.48615C34.741 4.55623 34.8174 4.64357 34.8748 4.74318C34.9322 4.8428 34.9693 4.95274 34.9842 5.06672C34.9991 5.1807 34.9914 5.2965 34.9615 5.4075L34.5065 7.098C34.4458 7.32151 34.2991 7.51186 34.0983 7.62733C33.8975 7.74279 33.6592 7.77396 33.4355 7.714Z" fill="white"/>
</svg>
